# xmcd CD database file
#
# Track frame offsets:
#	150
#	30451
#	46441
#	62592
#	78758
#	104593
#	118020
#	138475
#	153356
#	167600
#	181720
#	198738
#	214824
#	231230
#	245565
#	259349
#	274028
#	305489
#
# Disc length: 4270 seconds
#
# Revision: 1
# Processed by: cddbd v1.4PL0 Copyright (c) Steve Scherf et al.
# Submitted via: CDex 1.50beta10
#
DISCID=fd10ac12
DTITLE=Caviar com Rapadura - Isso é amor  Vol. 08
DYEAR=2003
DGENRE=Country
TTITLE0=Abertura
TTITLE1=Entre Ele e Ela
TTITLE2=Isso é amor
TTITLE3=Te Amo Cada Vez Mais
TTITLE4=Acredite
TTITLE5=Pense
TTITLE6=Uma Estrela
TTITLE7=Malandragem
TTITLE8=Despedida de Solteiro
TTITLE9=Não Estou Comendo Nada
TTITLE10=Adesivo de Amor
TTITLE11=Brinquedo Qualquer
TTITLE12=Não da pra Esquecer
TTITLE13=Louco por Você
TTITLE14=Meu Anjo Azul
TTITLE15=Se Entrega
TTITLE16=Dont Go
TTITLE17=
EXTD=YEAR: 2003
EXTT0=
EXTT1=
EXTT2=
EXTT3=
EXTT4=
EXTT5=
EXTT6=
EXTT7=
EXTT8=
EXTT9=
EXTT10=
EXTT11=
EXTT12=
EXTT13=
EXTT14=
EXTT15=
EXTT16=
EXTT17=
PLAYORDER=
